HIERARCHY
ROOT Hips
{
	OFFSET 0.00000 0.00000 0.00000
	CHANNELS 6 Xposition Yposition Zposition Zrotation Yrotation Xrotation 
	JOINT LHipJoint
	{
		OFFSET 0 0 0
		CHANNELS 3 Zrotation Yrotation Xrotation
		JOINT LeftHip
		{
			OFFSET 1.75344 -1.53157 0.77399
			CHANNELS 3 Zrotation Yrotation Xrotation
			JOINT LeftKnee
			{
				OFFSET 2.25415 -6.19323 0.00000
				CHANNELS 3 Zrotation Yrotation Xrotation
				JOINT LeftAnkle
				{
					OFFSET 2.30342 -6.32861 0.00000
					CHANNELS 3 Zrotation Yrotation Xrotation
					JOINT LeftToe
					{
						OFFSET 0.10958 -0.30108 1.49206
						CHANNELS 3 Zrotation Yrotation Xrotation
						End Site
						{
							OFFSET 0.00000 -0.00000 0.77783
						}
					}
				}
			}
		}
	}
	JOINT RHipJoint
	{
		OFFSET 0 0 0
		CHANNELS 3 Zrotation Yrotation Xrotation
		JOINT RightHip
		{
			OFFSET -1.81912 -1.53156 0.77399
			CHANNELS 3 Zrotation Yrotation Xrotation
			JOINT RightKnee
			{
				OFFSET -2.22882 -6.12365 0.00000
				CHANNELS 3 Zrotation Yrotation Xrotation
				JOINT RightAnkle
				{
					OFFSET -2.21943 -6.09785 0.00000
					CHANNELS 3 Zrotation Yrotation Xrotation
					JOINT RightToe
					{
						OFFSET -0.18931 -0.52012 1.59379
						CHANNELS 3 Zrotation Yrotation Xrotation
						End Site
						{
							OFFSET -0.00000 -0.00000 0.84686
						}
					}
				}
			}
		}
	}
	JOINT lowerback
	{
		OFFSET 0 0 0
		CHANNELS 3 Zrotation Yrotation Xrotation
		JOINT Chest
		{
			OFFSET -0.00200 1.66634 -0.14248
			CHANNELS 3 Zrotation Yrotation Xrotation
			JOINT Chest2
			{
				OFFSET -0.00875 1.64542 0.09514
				CHANNELS 3 Zrotation Yrotation Xrotation
				JOINT lowerneck
				{
					OFFSET 0 0 0
					CHANNELS 3 Zrotation Yrotation Xrotation
					JOINT Neck
					{
						OFFSET 0.02257 1.59605 0.00839
						CHANNELS 3 Zrotation Yrotation Xrotation
						JOINT Head
						{
							OFFSET -0.10214 1.57530 -0.23335
							CHANNELS 3 Zrotation Yrotation Xrotation
							End Site
							{
								OFFSET -0.03588 1.60717 -0.08062
							}
						}
					}
				}
				JOINT LeftCollar
				{
					OFFSET 0 0 0
					CHANNELS 3 Zrotation Yrotation Xrotation
					JOINT LeftShoulder
					{
						OFFSET 2.54983 1.10186 0.40078
CHANNELS 3 Zrotation Xrotation Yrotation
						JOINT LeftElbow
						{
OFFSET 0 -4.288400 0.000000
CHANNELS 3 Zrotation Xrotation Yrotation
							JOINT LeftWrist
							{
OFFSET 0 -3.065520 -0.000000
CHANNELS 3 Zrotation Xrotation Yrotation
								JOINT lhand
								{
									OFFSET 0 0 0
CHANNELS 3 Zrotation Xrotation Yrotation
									JOINT LFingers
									{
OFFSET 0 -0.753040 0.000000
CHANNELS 3 Zrotation Xrotation Yrotation
										End Site
										{
OFFSET 0 -0.607120 0.000000
										}
									}
								}
								JOINT LThumb
								{
OFFSET 0 0.000000 0.000000
CHANNELS 3 Zrotation Xrotation Yrotation
									End Site
									{
OFFSET 0 -0.616390 0.616390
									}
								}
							}
						}
					}
				}
				JOINT RightCollar
				{
					OFFSET 0 0 0
					CHANNELS 3 Zrotation Yrotation Xrotation
					JOINT RightShoulder
					{
						OFFSET -2.60909 1.35448 0.21802
CHANNELS 3 Zrotation Xrotation Yrotation
						JOINT RightElbow
						{
OFFSET 0 -4.521720 -0.000000
CHANNELS 3 Zrotation Xrotation Yrotation
							JOINT RightWrist
							{
OFFSET 0 -2.891400 0.000000
CHANNELS 3 Zrotation Xrotation Yrotation
								JOINT rhand
								{
									OFFSET 0 0 0
CHANNELS 3 Zrotation Xrotation Yrotation
									JOINT RFingers
									{
OFFSET 0 -0.680540 0.000000
CHANNELS 3 Zrotation Xrotation Yrotation
										End Site
										{
OFFSET 0 -0.548670 0.000000
										}
									}
								}
								JOINT RThumb
								{
OFFSET 0 0.000000 0.000000
CHANNELS 3 Zrotation Xrotation Yrotation
									End Site
									{
OFFSET 0 -0.557050 0.557050
									}
								}
							}
						}
					}
				}
			}
		}
	}
}
MOTION
Frames: 7
Frame Time: 0.008333333333333333
8.390200 15.141400 42.326400 -179.489000 3.389000 178.584000 0.000000 0.000000 0.000000 -27.141600 -22.645400 1.993900 2.239100 9.347300 26.887800 1.491800 16.374300 -33.926100 2.858100 -10.461700 -30.485200 0.000000 0.000000 0.000000 24.427400 17.890100 -0.636400 -2.209500 -9.289400 26.704800 -0.852500 -16.659900 -30.259900 -0.000400 -0.121100 0.332800 -1.067700 1.306900 6.898500 -0.265800 1.680200 -3.839200 0.086700 0.894500 -7.935700 -6.201500 -1.718800 -8.522400 8.899000 -7.308700 30.298700 3.234500 -4.195800 11.826400 0.000000 0.000000 0.000000 3.999200 12.587800 -39.600700 20.400400 -31.121700 5.736900 2.572800 13.332000 36.138400 0.000000 0.000000 0.000000 -7.125000 0.000000 0.000000 -16.505700 -4.886300 -18.612400 0.000000 0.000000 0.000000 -5.266300 11.906300 49.910900 -17.685700 -27.752900 -4.401900 -7.663000 22.179100 52.860300 0.000000 0.000000 0.000000 7.125000 0.000000 -0.000000 68.304400 74.055000 -52.213800
8.370001 15.138594 42.324220 -179.713028 3.664736 178.374623 0.000000 0.000000 0.000000 -27.518943 -22.257179 2.226195 2.197717 9.266397 26.632196 1.436885 16.507710 -33.732616 2.914870 -10.555976 -30.796781 0.000000 0.000000 0.000000 24.078981 17.744139 -0.722217 -2.268703 -9.404661 27.069484 -0.860862 -16.370749 -30.012217 -0.000453 0.132508 -0.364119 -1.432541 1.385842 7.165474 -0.181534 1.746265 -3.808386 0.364342 0.947043 -8.073929 -6.366263 -1.512999 -8.417998 8.945814 -7.179104 30.792256 3.301495 -4.197606 11.995603 0.000000 0.000000 0.000000 3.715826 12.569358 -39.322678 20.012793 -30.657689 5.537822 4.572643 13.114934 36.539172 0.000000 0.000000 0.000000 -7.125000 0.000000 0.000000 -15.479304 -5.483209 -17.511938 0.000000 0.000000 0.000000 -5.491917 11.959969 49.743643 -17.755241 -27.842668 -4.434317 -5.352690 20.639493 53.640669 0.000000 0.000000 0.000000 7.125000 0.000000 0.000000 71.973190 73.430867 -54.882402
8.352339 15.135839 42.305800 -179.722401 3.185810 178.289367 0.000000 0.000000 0.000000 -27.774184 -22.660580 2.546852 2.211892 9.294165 26.719901 1.452274 16.556339 -33.866253 2.917480 -10.560024 -30.810197 0.000000 0.000000 0.000000 24.067167 17.504571 -0.403446 -2.235633 -9.340504 26.866288 -0.878476 -16.641155 -30.413363 -0.004419 0.429922 -1.181285 -1.529869 1.090711 6.904893 -0.019615 1.352356 -3.654900 0.652885 0.760564 -7.755482 -6.264484 -2.016736 -8.096188 8.315889 -6.615757 31.271524 3.225362 -3.574629 12.053271 0.000000 0.000000 0.000000 3.494167 12.589930 -39.238405 20.111013 -30.775799 5.588044 2.902269 13.547485 36.204202 0.000000 0.000000 0.000000 -7.125000 0.000000 0.000000 -16.336315 -4.982466 -18.430294 0.000000 0.000000 0.000000 -5.869145 11.814000 49.984841 -17.787280 -27.883944 -4.449351 -5.970812 21.069104 53.052873 0.000000 0.000000 0.000000 7.125000 0.000000 0.000000 69.768369 73.490992 -52.912947
8.341018 15.131001 42.302295 -179.527683 3.170146 178.209441 0.000000 0.000000 0.000000 -27.493769 -22.186250 2.336772 2.241388 9.351663 26.901734 1.418143 16.375992 -33.501557 3.240233 -11.074112 -32.530249 0.000000 0.000000 0.000000 24.342310 17.588400 -0.081494 -2.205589 -9.281834 26.680898 -0.907599 -16.394565 -30.349403 -0.008428 -0.580506 1.595141 -1.381899 1.021869 6.972504 0.074847 1.278467 -3.623452 0.678522 0.718245 -7.757839 -5.713545 -5.261973 -7.911712 6.796370 -5.411983 32.082361 3.159624 -1.061291 12.226183 0.000000 0.000000 0.000000 3.553695 12.803085 -39.181808 20.301806 -31.004282 5.686011 1.918758 14.097760 35.955021 0.000000 0.000000 0.000000 -7.125000 0.000000 0.000000 -16.840532 -4.647410 -18.958789 0.000000 0.000000 0.000000 -5.940815 12.012251 49.742906 -17.917310 -28.051200 -4.510317 -5.674796 20.881384 53.405439 0.000000 0.000000 0.000000 7.125000 0.000000 0.000000 71.058270 73.484256 -54.094348
8.326750 15.125676 42.299968 -179.490579 3.288672 178.200801 0.000000 0.000000 0.000000 -27.509447 -22.125252 2.235327 2.271710 9.410445 27.087933 1.357097 16.697905 -33.445713 3.291201 -11.151611 -32.793522 0.000000 0.000000 0.000000 24.351774 17.701360 0.007934 -2.188590 -9.248255 26.575055 -0.787096 -16.886772 -30.062126 -0.000736 -0.146186 0.401651 -1.316651 1.026938 7.066433 -0.019841 1.283378 -3.627562 0.539912 0.714497 -7.813111 -5.653311 -5.285835 -7.645809 7.006298 -5.408530 32.513196 3.260023 -0.973617 12.353922 0.000000 0.000000 0.000000 3.859502 12.720292 -39.457807 20.146954 -30.818934 5.606427 2.947677 13.287282 35.679645 0.000000 0.000000 0.000000 -7.125000 0.000000 0.000000 -16.289976 -4.485125 -18.242676 0.000000 0.000000 0.000000 -5.579340 12.046684 49.308604 -17.906813 -28.037681 -4.505360 -7.667743 22.387906 52.533456 0.000000 0.000000 0.000000 7.125000 0.000000 0.000000 67.194888 73.949909 -51.094103
8.310901 15.135540 42.293294 -179.368229 2.974919 178.394953 0.000000 0.000000 0.000000 -27.285635 -22.076201 1.981883 2.253763 9.375754 26.977846 1.235056 16.803584 -32.821503 3.662565 -11.689805 -34.653031 0.000000 0.000000 0.000000 24.468336 17.916519 0.059493 -2.173604 -9.218660 26.481742 -0.883703 -16.842671 -30.659394 -0.026929 -1.039304 2.857152 -1.192828 0.882723 6.984107 0.029104 1.110172 -3.677492 0.545831 0.626032 -7.813048 -5.086529 -5.442967 -8.186379 6.135824 -5.405318 33.341955 2.853752 -0.954657 12.768299 0.000000 0.000000 0.000000 3.837657 12.842821 -39.476775 20.216844 -30.902669 5.642286 4.210798 12.818359 36.146097 0.000000 0.000000 0.000000 -7.125000 0.000000 0.000000 -15.647664 -5.065843 -17.612805 0.000000 0.000000 0.000000 -5.552700 12.008283 48.774010 -17.660670 -27.720182 -4.390454 -6.122303 22.044657 51.831541 0.000000 0.000000 0.000000 7.125000 0.000000 0.000000 65.826963 73.126985 -48.957408
8.293771 15.132142 42.282839 -179.742491 2.754977 178.218613 0.000000 0.000000 0.000000 -27.871627 -22.087608 2.482705 2.186734 9.244625 26.563609 1.242648 16.672880 -32.741932 3.363157 -11.260763 -33.164771 0.000000 0.000000 0.000000 24.070862 17.889087 0.100620 -2.243178 -9.355219 26.912919 -0.852106 -17.051359 -30.671983 -0.016354 -0.804969 2.212361 -1.429653 0.759726 6.966701 -0.129474 0.905900 -3.532280 0.542355 0.530382 -7.644485 -5.308875 -5.305781 -7.659947 6.501035 -5.237964 33.188337 3.059634 -0.860387 12.598578 0.000000 0.000000 0.000000 3.850745 12.612115 -39.301909 20.154172 -30.827585 5.610180 3.740949 12.914918 36.495252 0.000000 0.000000 0.000000 -7.125000 0.000000 0.000000 -15.911917 -5.349324 -18.005913 0.000000 0.000000 0.000000 -5.451489 11.916538 48.981657 -17.890025 -28.016091 -4.497468 -5.582271 20.936222 53.541415 0.000000 0.000000 0.000000 7.125000 0.000000 0.000000 71.545504 73.487494 -54.550384
